<?xml version="1.0" encoding="UTF-8"?>
<svg width="62px" height="66px" viewBox="0 0 62 66" version="1.1" xmlns="http://www.w3.org/2000/svg" xmlns:xlink="http://www.w3.org/1999/xlink">
    <title>Logo</title>
    <g id="Symbols" stroke="none" stroke-width="1" fill="none" fill-rule="evenodd">
        <g id="Top-Navigation/Feed-Navigation---1" transform="translate(-15.000000, -57.000000)">
            <g id="Group" transform="translate(15.027652, 57.000000)">
                <path d="M20.8133641,63.780396 C20.9387741,63.780396 20.988916,63.7308416 21.0139869,63.6322772 C21.0390579,63.5337129 21.0641842,63.3855941 21.0892551,63.1879208 C21.1895942,62.1260396 21.6911791,59.830198 22.5690494,56.2993069 C23.1710287,54.0770347 23.5723298,52.6450198 23.7729527,51.9783218 C24.349861,49.9290545 24.675894,48.8920049 24.801304,48.8426683 C24.9267141,48.7932772 25.0521795,48.7438861 25.2026051,48.694495 C26.0804755,48.3735346 26.8580067,48.1266337 27.5602698,47.9537921 C28.2375172,47.7809505 28.9147094,47.7068911 29.5668305,47.7068911 C30.2189517,47.7068911 30.5701109,47.7315594 30.6453238,47.8056188 L30.7958048,47.9537921 C30.820931,48.0031832 30.8710729,48.0525198 30.8961439,48.0772426 C30.996483,48.2006931 31.0968221,48.2500842 31.1971058,48.2500842 C31.3225159,48.2500842 31.3727131,48.2006931 31.3727131,48.0772426 C31.3727131,48.0031832 31.3476422,47.9290693 31.3225159,47.8550099 C30.9463411,47.1389752 30.3945037,46.7192327 29.7173115,46.6205049 C29.0150485,46.5464455 28.463211,46.4970545 28.036839,46.4970545 C27.5101279,46.4970545 26.9834167,46.5464455 26.4567056,46.6205049 C25.5286934,46.7686238 24.9016431,46.8920743 24.6257521,46.9908564 L24.5504839,46.9908564 C24.4502002,46.9908564 24.349861,46.9661881 24.224451,46.8920743 C24.099041,46.8426832 23.9736309,46.8180148 23.8482209,46.8180148 C23.6977399,46.8180148 23.5472589,46.916797 23.3967779,47.1143069 C23.2211706,47.3365396 22.7446567,47.5834406 21.9671255,47.904401 C21.1644679,48.2253614 20.2615267,48.6698267 19.2833725,49.2130198 C18.2800922,49.7808812 17.452419,50.4969158 16.8002978,51.3610693 C16.7250297,51.4845198 16.6748878,51.583302 16.6748878,51.7067525 C16.6748878,51.8055347 16.6999587,51.9042624 16.7752269,51.9783218 C16.900637,52.1758861 17.1263308,52.3487277 17.4022772,52.4721782 C17.5025609,52.5215148 17.6029,52.5462376 17.6781682,52.5462376 C17.778452,52.5462376 17.8787911,52.4968465 18.0042011,52.373396 C18.6312514,51.8055347 19.6596027,51.1388911 21.0892551,50.4228564 C21.1702237,50.3847376 21.2457133,50.3490148 21.3160005,50.3158515 L21.3197639,50.3140545 L21.3198192,50.3140545 C21.7475195,50.1119158 21.9778622,50.0031139 22.0423383,50.0031139 C22.0674092,50.0031139 22.0925355,50.0031139 22.0925355,50.0277822 C22.0925355,50.1018416 22.0674092,50.2252921 22.0172673,50.3734653 C21.9419992,50.5215842 21.8667864,50.7438168 21.7664472,51.0401089 C20.3117239,55.8549505 19.5843345,59.6820792 19.5843345,62.5458911 C19.5843345,62.9406931 19.6345318,63.2124257 19.7097446,63.3360396 C19.7850127,63.4596535 19.9104228,63.5827228 20.1110457,63.6567822 C20.2866529,63.7308416 20.4622049,63.780396 20.6126859,63.780396 L20.8133641,63.780396 Z M10.0831674,65.8317327 C9.84812038,65.9368317 9.59165517,66 9.3352453,66 C8.80100735,66 8.22398829,65.7685644 7.60429883,65.2844554 C6.9204654,64.6745545 6.57849333,63.4122772 6.57849333,61.5188614 C6.57849333,60.9508911 6.62127443,60.2778218 6.72808882,59.4571782 C6.83495854,58.6370792 7.0059169,57.984703 7.26238211,57.5011386 C7.34783362,57.395495 7.45470335,57.3328713 7.60429883,57.3328713 C7.66838746,57.3328713 7.79662007,57.3535644 7.9889413,57.4167327 C8.39494665,57.5643069 8.60868611,57.8164356 8.60868611,58.1742079 C8.60868611,58.3844059 8.58726789,58.6577723 8.52317926,59.0155446 C8.41630953,59.7098515 8.3522209,60.5511881 8.3522209,61.5820297 C8.3522209,62.5077723 8.52317926,63.4754455 8.8437331,64.4850495 C8.86509598,64.5062871 8.88645885,64.5269802 8.92918461,64.5269802 C9.07878009,64.5269802 9.35660818,64.1697525 9.78403175,63.4335149 C10.2114,62.7179703 10.6601864,61.7083663 11.1303357,60.3829208 C11.6004297,59.0574752 11.8782578,57.7325743 11.9851275,56.365198 L12.0492162,54.7663861 C12.0492162,54.1140099 12.0278533,53.7984406 11.9637647,53.7984406 C11.9209836,53.7984406 11.8141692,53.8405347 11.6218479,53.9457426 C11.258513,54.2192178 10.3823583,54.5349505 8.99332858,54.9346535 C8.97196571,54.9373762 8.95104558,54.9406436 8.93056821,54.9433663 L8.92957202,54.9433663 L8.92923995,54.9433663 C8.80676315,54.9613366 8.69994876,54.9765842 8.60868611,54.9765842 C8.28813227,54.9765842 8.01030418,54.8714851 7.73247609,54.6819802 C7.3691965,54.4295792 7.19823814,54.1771238 7.19823814,53.9457426 C7.19823814,53.8405347 7.24096389,53.756401 7.34783362,53.6511931 C7.45470335,53.5670594 7.58288061,53.5039455 7.73247609,53.4619059 C9.05741721,52.8097475 10.2969068,52.3469307 11.4722525,52.0734554 C12.0064904,51.9472277 12.4766397,51.8841139 12.9253708,51.8630941 C13.2672876,51.8841139 13.5664785,51.9893218 13.8015809,52.1786634 C14.1007165,52.4521386 14.250312,52.6835198 14.250312,52.8938812 C14.250312,53.0411287 14.1648605,53.1042426 13.9725392,53.1042426 L13.8656695,53.1042426 C13.6947111,53.1042426 13.5237528,53.1253168 13.3741573,53.1883762 L13.3314315,53.2094505 C13.2672876,53.2304703 13.2245618,53.2935842 13.2245618,53.3777178 C13.2459247,53.5670594 13.3100687,53.8195148 13.3955202,54.0929901 C13.5664785,54.5556436 13.6733483,55.2918812 13.7374369,56.3020297 L13.7587998,56.7224257 C13.7587998,57.7113366 13.5451156,59.0367822 13.1176921,60.7194554 C12.8399193,61.8766337 12.4338586,62.9494059 11.9209836,63.8963861 C11.4081085,64.8640594 10.788419,65.5158911 10.0831674,65.8317327 Z M18.8767584,63.7488119 C18.8767584,63.8119802 18.8126698,63.8539109 18.6844372,63.8751485 L18.6203485,63.8751485 C18.3638833,63.8751485 18.1288363,63.8119802 17.9150969,63.6644059 C17.5090915,63.4329703 17.2526263,63.1176733 17.1030862,62.7179703 C17.0603051,62.6341089 17.0175793,62.5916337 16.9534907,62.5916337 C16.9402634,62.5916337 16.9189006,62.599802 16.8894021,62.6106931 C16.8711385,62.6177723 16.8497203,62.6259406 16.8252581,62.6341089 C16.6329369,62.7179703 16.4191974,62.8023762 16.2055133,62.865 C15.9063223,62.9706436 15.6071867,63.0964356 15.3079957,63.2440099 C15.1797631,63.3071782 15.0515305,63.3703465 14.9019351,63.4122772 C14.8699461,63.4226238 14.8325887,63.4329703 14.7952314,63.4438614 L14.7951207,63.4438614 C14.757708,63.4542079 14.7202953,63.4645545 14.6882509,63.4754455 C14.6241623,63.4961386 14.5386555,63.5173762 14.4745668,63.5173762 C14.3676971,63.5173762 14.2608827,63.4754455 14.1753759,63.4122772 C14.1548431,63.400297 14.1350853,63.3877723 14.1158808,63.3763366 C14.0349122,63.3262376 13.9625219,63.2821287 13.8761849,63.264703 C13.7693705,63.2440099 13.6838637,63.2227723 13.5770493,63.159604 C13.3846727,63.0757426 13.2778583,62.9281683 13.2778583,62.7179703 C13.2992212,62.4233663 13.3419469,62.1287624 13.4060909,61.855396 C13.4060909,61.750297 13.4274538,61.6239604 13.4915424,61.4976238 C13.5342682,61.3718317 13.5556311,61.2242574 13.5770493,61.0772277 L13.9403289,59.7305446 C13.9616917,59.6466832 13.9830546,59.5622772 14.0044175,59.4571782 L14.1967387,58.8472772 L14.216718,58.7939109 C14.3576798,58.4176238 14.4774447,58.0979703 14.5386555,57.8164356 L14.6241623,57.6062376 C14.8164835,57.0382673 14.966079,56.680495 15.0515305,56.4909901 C15.1370374,56.3020297 15.201126,56.1125248 15.26527,55.9230198 C15.3293586,55.7335148 15.3934473,55.5652475 15.4575912,55.4182178 C15.4896355,55.344703 15.5216799,55.2760891 15.5537242,55.2080198 C15.5858238,55.1394059 15.6178681,55.0713366 15.6499125,54.9972772 C15.6926382,54.8502475 15.8208708,54.5349505 16.0559178,54.0087475 C16.1200618,53.8194604 16.2055133,53.6301188 16.2910201,53.4407772 C16.3764717,53.2514356 16.5047043,53.167302 16.6970255,53.167302 L16.7397512,53.167302 C17.2099006,53.209396 17.594543,53.3986832 17.893734,53.7352723 C17.9364598,53.7983861 17.957878,53.8615 17.9792409,53.9246139 L18.0006037,54.1770693 L17.957878,54.1770693 L17.9792409,54.8714851 L17.8723711,56.6173267 C17.8510083,56.8487624 17.8296454,57.1014356 17.8296454,57.3323267 L17.8082825,58.7628713 C17.8082825,59.0994059 17.8296454,59.4364851 17.8723711,59.7730198 L17.8723711,60.1095545 L17.957878,60.9721287 C17.9792409,61.0772277 18.0219666,61.1191584 18.1288363,61.1191584 C18.5989303,61.1823267 18.940847,61.3925248 19.1759494,61.750297 C19.240038,61.834703 19.2614009,61.9185644 19.2828191,62.0029703 C19.2828191,62.1080693 19.240038,62.1712376 19.1759494,62.1712376 L19.0904425,62.15 C19.004991,62.1287624 18.9194842,62.1080693 18.8553955,62.1080693 L18.4707531,62.1712376 C18.4707531,62.1815842 18.4707531,62.1870297 18.4680412,62.1892079 C18.4653847,62.1919307 18.4600716,62.1919307 18.4493902,62.1919307 C18.2997947,62.2131683 18.2142879,62.255099 18.2142879,62.2970297 C18.2142879,62.3280693 18.2256888,62.37 18.240189,62.4233663 L18.2402443,62.4233663 L18.2402443,62.4233663 L18.2402996,62.4239109 C18.2432882,62.434802 18.2463322,62.4456931 18.2494868,62.4576733 C18.2508704,62.4625743 18.2521987,62.4680198 18.2535823,62.4734653 C18.2547445,62.4778218 18.2559067,62.4821782 18.2570136,62.4865347 C18.3638833,62.8862376 18.5348417,63.264703 18.8126698,63.6224752 C18.8553955,63.6856436 18.8767584,63.7275743 18.8767584,63.7488119 Z M15.3317938,61.8330693 C15.3364427,61.834703 15.341645,61.834703 15.3507215,61.834703 L15.3934473,61.8134653 C15.9277406,61.6032673 16.2910201,61.4769307 16.4406156,61.4556931 C16.5901558,61.435 16.6542997,61.3925248 16.6542997,61.3293564 L16.6329369,61.245495 C16.5687929,61.0559901 16.54743,60.8664851 16.5260671,60.6775248 L16.5047043,60.5931188 L16.3764717,59.7730198 L16.312383,59.3308416 C16.2910201,59.1838119 16.2696573,59.0367822 16.2696573,58.8685148 L16.2696573,58.7209406 C16.2696573,58.8053465 16.248239,58.8685148 16.2268762,58.8892079 C16.1414247,59.0367822 16.0986989,59.1838119 16.0772807,59.3520792 C15.9491034,59.9619802 15.735364,60.6355941 15.4362283,61.3718317 L15.2866329,61.7922277 C15.2866329,61.8031188 15.2866329,61.8080198 15.2892894,61.8107426 C15.2919459,61.8134653 15.2973143,61.8134653 15.3079957,61.8134653 C15.3202822,61.8254455 15.3254845,61.8308911 15.3317938,61.8330693 Z M14.2608827,65.9155941 L13.854822,65.9994554 C13.7693705,65.9994554 13.6838637,65.9787624 13.619775,65.9368317 C13.2778583,65.7685644 13.042756,65.5158911 12.9359416,65.1793564 L12.9145787,65.0530198 C12.9145787,64.9266832 13.0000302,64.8215842 13.1709886,64.7584158 C13.5342682,64.5694554 13.8975478,64.4431188 14.3036085,64.3380198 L15.1156745,64.1065842 C15.7781451,63.9170792 16.312383,63.7907426 16.7183884,63.7488119 C16.7825323,63.7488119 16.8252581,63.7488119 16.8679839,63.7275743 C16.9107096,63.7068812 16.9321278,63.7068812 16.9534907,63.7068812 L16.9962165,63.7068812 C17.2740445,63.7068812 17.5304544,63.7700495 17.7655014,63.9170792 C18.0006037,64.0641089 18.1501992,64.2536139 18.2142879,64.4850495 L18.2356507,64.6113861 C18.2356507,64.6320792 18.2142879,64.6745545 18.192925,64.6952475 C18.1715621,64.7164851 18.1288363,64.7377228 18.1074735,64.7377228 C18.0433295,64.7377228 18.0006037,64.7164851 17.957878,64.6952475 C17.893734,64.6745545 17.8510083,64.6745545 17.8082825,64.6745545 L17.6373241,64.7164851 C17.5732355,64.7377228 17.487784,64.7584158 17.4023325,64.7796535 L17.4022218,64.7796535 C16.9748536,64.9059901 16.2910201,65.1581188 15.3293586,65.5371287 C14.8164835,65.7473267 14.4532039,65.8736634 14.2608827,65.9155941 Z M24.647281,63.2440099 C24.5404666,63.2859406 24.4549598,63.3071782 24.3481454,63.3071782 C24.1985499,63.3071782 24.0275915,63.2652475 23.7924892,63.1808416 C23.5574422,63.1176733 23.4292096,62.9706436 23.3864839,62.7392079 C23.3437581,62.4026733 23.3223399,62.0868317 23.3223399,61.8134653 C23.3223399,61.4981683 23.4078467,60.6775248 23.5788051,59.3101485 L23.6642566,58.5526733 C23.6856748,58.1322772 23.7711263,57.7113366 23.8779961,57.3116337 L23.9207218,57.164604 C23.9848104,56.7224257 24.1985499,56.4909901 24.5404666,56.4909901 C24.7968765,56.4909901 25.0105606,56.5334653 25.2029372,56.6173267 C25.3738955,56.7224257 25.459347,56.8487624 25.459347,57.0382673 C25.459347,57.3116337 25.3524773,57.8583663 25.1601561,58.6370792 C25.0747046,58.9104455 24.9037462,59.8361881 24.6686439,61.4137624 C24.6045552,61.750297 24.5618295,62.0868317 24.5618295,62.4233663 C24.5618295,62.5290099 24.5618295,62.6128713 24.5831924,62.6972772 C24.5831924,62.8023762 24.6259181,62.8655446 24.6900621,62.9074752 C24.7541507,62.9494059 24.7755136,63.0125743 24.7755136,63.0757426 L24.7755136,63.1389109 C24.7755136,63.1808416 24.7327879,63.2227723 24.647281,63.2440099 Z M25.9294964,55.1660891 C25.9294964,55.2292574 25.8867706,55.2499505 25.8012638,55.2711881 L25.6516683,55.2711881 C25.4166213,55.2711881 25.181519,55.1867822 24.9891977,54.9978218 C24.9037462,54.9346535 24.8396022,54.8502475 24.7968765,54.7663861 C24.7327879,54.6819802 24.711425,54.4924752 24.711425,54.1771782 C24.711425,53.9457426 24.7327879,53.7143614 24.7755136,53.4829802 C24.7755136,53.3146584 24.7968765,53.1463911 24.8396022,52.9570495 C24.8396022,52.8518416 24.8396022,52.7677079 24.8610205,52.7466881 C24.8733069,52.7345446 24.8785092,52.7294257 24.880723,52.7232723 C24.8823833,52.718698 24.8823833,52.7135247 24.8823833,52.7045941 C24.8823833,52.6956634 24.8823833,52.6904901 24.8839883,52.6859158 C24.8862021,52.6797624 24.8914598,52.6746436 24.9037462,52.6625 L24.9037462,52.5993861 C24.9037462,52.4311188 24.9678348,52.1786634 25.0960674,51.8210545 L25.1601561,51.6527327 C25.2456629,51.3792574 25.4166213,51.2530842 25.6516683,51.2530842 C25.9081335,51.2530842 26.1218176,51.316198 26.3141388,51.4634455 C26.5064601,51.6106931 26.5919669,51.7789604 26.5919669,51.968302 C26.5919669,52.1366238 26.5064601,52.4942327 26.3141388,53.0411832 L26.3141388,53.104297 C26.2891232,53.1535792 26.2714131,53.1956733 26.2567469,53.2305247 L26.2567469,53.2305792 C26.2463421,53.2551931 26.2375424,53.2762129 26.2286873,53.2936386 C26.2073245,53.3356782 26.2073245,53.3567525 26.2073245,53.3777723 C26.1953148,53.3895891 26.190057,53.4080495 26.1839692,53.429396 C26.1792096,53.4460594 26.1739519,53.4645198 26.1645434,53.4829802 C26.1004547,53.5881337 26.057729,53.7143614 26.0149479,53.8826287 C25.9081335,54.156104 25.8439895,54.4717822 25.8439895,54.8083168 C25.8439895,54.9134158 25.8439895,54.9765842 25.8654077,54.9978218 C25.8654077,55.0185148 25.8654077,55.0185148 25.8867706,55.0185148 C25.8867706,55.0397525 25.8867706,55.0604455 25.9081335,55.0816832 C25.9294964,55.1029208 25.9294964,55.1448515 25.9294964,55.1660891 Z M26.6375152,63.3071782 C26.744385,63.3071782 26.8511993,63.2859406 26.979432,63.2227723 C27.4709442,62.9706436 28.3470988,62.6128713 29.5865884,62.15 C30.2704219,61.8978713 30.9756182,61.6871287 31.6808145,61.5188614 L32.5142434,61.3086634 C32.8988859,61.2035644 33.2835837,61.1191584 33.6682262,61.0559901 L34.0956498,60.9721287 C34.2451899,60.9721287 34.3306967,61.0140594 34.3734225,61.0772277 C34.4161482,61.1616337 34.4589293,61.224802 34.5016551,61.245495 L34.523018,61.245495 C34.5871066,61.2874257 34.6298877,61.3086634 34.6726135,61.3086634 C34.7794832,61.3086634 34.8435718,61.1823267 34.8435718,60.9508911 C34.8435718,60.8457921 34.8222089,60.7406931 34.7794832,60.6355941 C34.5657437,60.0256931 34.0956498,59.7310891 33.3903981,59.7310891 C33.1126253,59.7310891 32.8561601,59.7517822 32.5997503,59.8149505 C31.4244046,60.0256931 30.184915,60.3622277 28.8599739,60.8038614 L28.1975587,60.9933663 C28.3257359,60.8457921 28.4539686,60.6987624 28.603564,60.5936634 C28.7103784,60.530495 28.7958853,60.4460891 28.8813368,60.3622277 C29.137802,60.1307921 29.4156301,59.9200495 29.6934028,59.7310891 C29.8857241,59.5628218 30.0994635,59.3945545 30.3131476,59.2469802 C30.3635662,59.2083168 30.4169734,59.1685644 30.4732585,59.1260891 L30.4734245,59.1260891 C30.6318198,59.0073762 30.8134596,58.8706931 31.0183439,58.7002475 C31.2534463,58.5526733 31.4671304,58.3844059 31.6594516,58.1954455 L31.8731357,58.0059406 C32.2150525,57.7325743 32.407429,57.4167327 32.4287919,57.1014356 L32.4287919,57.080198 C32.4287919,56.9119307 32.407429,56.8068317 32.3432851,56.7436634 C31.9800055,56.365198 31.5525819,56.1756931 31.0610697,56.1756931 C30.5481946,56.1756931 30.0353195,56.3020297 29.5438073,56.5541584 C29.436993,56.5966337 29.3301232,56.6173267 29.2233088,56.6173267 C29.1164391,56.6173267 28.9882065,56.5966337 28.8599739,56.5334653 C28.838611,56.5122277 28.8172481,56.4909901 28.8172481,56.4490594 C28.8279296,56.4174752 28.838611,56.3809901 28.8492925,56.3439604 C28.8599739,56.3069307 28.8706553,56.2704455 28.8813368,56.2388614 C28.8893064,56.2154455 28.9002092,56.1887624 28.9118868,56.1604455 C28.9315894,56.1130693 28.9534503,56.0602475 28.9668436,56.0074257 C29.0737134,55.6921287 29.1805277,55.3975247 29.3301232,55.0816832 L29.3301232,55.0609901 C29.5438073,54.5981188 29.8857241,54.0720247 30.3345105,53.5040545 C30.8687485,52.7256683 31.531219,51.9893762 32.3219222,51.2951782 L32.5142434,51.1269109 L32.5356063,51.1689505 C32.5356063,51.1899703 32.5356063,51.2110446 32.5142434,51.2320644 L32.5142434,51.2321733 C32.4287366,51.5897277 32.3432851,51.9473366 32.2364153,52.3049455 C32.1830081,52.4837772 32.1242326,52.6625545 32.065457,52.8413861 L32.0654016,52.8415495 C32.0066814,53.0203267 31.9479058,53.1990495 31.8944986,53.3778267 C31.7449585,53.8195693 31.6594516,54.2823861 31.6594516,54.7451485 C31.6594516,54.9346535 31.7235403,55.0816832 31.8731357,55.2292574 C32.0655123,55.4182178 32.2364153,55.5026238 32.3860108,55.5026238 C32.4501548,55.5026238 32.5142434,55.4813861 32.5783874,55.4394554 C32.7707086,55.2924257 32.8988859,55.1029208 33.0057556,54.8927228 L33.240858,54.4296337 C33.4331792,54.1141188 33.5399936,53.8826832 33.6041375,53.693396 L33.9674171,52.6836287 C34.1170126,52.1997376 34.2024641,51.7369752 34.2024641,51.2951782 C34.2024641,50.6851139 33.9460543,50.1802574 33.4331792,49.7594802 C33.0912625,49.4439653 32.7493458,49.2966634 32.4287919,49.2966634 C32.1082381,49.2966634 31.7663214,49.4439653 31.3602607,49.7174406 L31.3175349,49.7384604 C31.1465765,49.8436683 30.8901113,50.0750495 30.5268317,50.4326584 C30.249059,50.6851139 30.0139567,50.9585891 29.8216354,51.2530842 C29.5438073,51.6107475 29.2873975,52.0104505 29.0523505,52.4101535 C28.6890155,53.1463911 28.4753314,53.6092079 28.4326057,53.7985495 C28.4112428,53.9037574 28.3898799,53.9878911 28.3257359,54.0720247 C28.2616473,54.1772327 28.2189216,54.2823861 28.1975033,54.3875941 L28.1761405,54.5137129 C27.9197306,55.1448515 27.7701351,55.7972277 27.7274094,56.4915347 L27.7274094,56.5541584 C27.7274094,56.9331683 27.8983677,57.269703 28.2616473,57.5430693 C28.3684617,57.6062376 28.4753314,57.690099 28.5608383,57.7957426 C28.6890155,58.0271782 28.902755,58.1322772 29.1805277,58.1322772 L29.2233088,58.1322772 C28.4326057,58.7841089 27.7274094,59.4364851 27.1076646,60.1307921 C26.7871107,60.4460891 26.6161524,60.6355941 26.6161524,60.6987624 C26.4665569,60.8877228 26.3811054,61.0559901 26.3811054,61.2035644 C26.3811054,61.3086634 26.4238311,61.4137624 26.4879198,61.5188614 L26.5092826,61.5820297 C26.4879198,61.6032673 26.4665569,61.6245049 26.4238311,61.645198 C26.2315099,61.7083663 26.0819144,61.7927723 25.9323189,61.8766337 C25.7827234,61.9610396 25.6972166,62.0661386 25.6972166,62.1924752 L25.7186348,62.2975743 C25.7827234,62.5921782 25.910956,62.8443069 26.1246402,63.0338119 C26.2742356,63.1808416 26.3811054,63.2652475 26.4665569,63.2859406 C26.5306455,63.3071782 26.5947895,63.3071782 26.6375152,63.3071782 Z M40.7283803,61.7791584 C40.6215105,61.8842574 40.3864635,61.9474257 40.0231839,61.9474257 C39.6171786,61.9474257 39.2752065,61.8423267 38.954708,61.6108911 C38.6341542,61.4001485 38.377689,60.7483168 38.142642,59.6543069 C38.0144094,59.0231683 37.9503208,58.6866337 37.9503208,58.644703 C37.843451,58.0342574 37.7793624,57.1722277 37.7152184,56.0782178 L37.6938556,55.5102475 C37.6938556,53.7640792 37.9503208,52.8805396 38.4631958,52.8805396 L38.5700102,52.8805396 C39.0187967,52.943599 39.2538437,53.090901 39.2538437,53.3643762 L39.2752619,53.8692327 C39.2752619,54.2268416 39.2966248,54.6057426 39.3179876,54.9629703 L39.3179876,55.2788119 C39.3179876,55.3626733 39.3179876,55.4470792 39.3393505,55.5309406 C39.3607134,55.6365842 39.3607134,55.7416832 39.3607134,55.8674752 L39.3607134,56.0150495 C39.3607134,56.1620792 39.3820763,56.4147525 39.424802,56.7300495 C39.4365903,56.915198 39.4547986,57.0943564 39.4723981,57.2664356 C39.4867322,57.4074752 39.500679,57.5441584 39.5103089,57.6770297 L39.5530346,57.9923267 L39.5553037,58.0217327 C39.5760025,58.2869307 39.5980848,58.570099 39.6599044,58.8336634 C39.723993,59.3177723 39.788137,59.6962376 39.8735885,59.9276733 C39.9376771,59.8645049 40.1300537,59.4021782 40.4078264,58.4971287 C41.134441,56.1201485 41.882363,54.2479158 42.6517033,52.8384455 C42.8653874,52.4387426 43.1217973,52.0390396 43.4423511,51.6814307 C43.6347277,51.4920891 43.8484118,51.3868812 44.1048217,51.3868812 C44.2757801,51.3868812 44.4467384,51.4289752 44.5963339,51.4920891 C44.8314362,51.6183168 44.9596135,51.7445446 44.9596135,51.849698 C44.9596135,51.9128119 44.9382506,51.9549059 44.874162,51.9759257 C44.8496998,51.9839851 44.8283369,51.9919901 44.8101287,51.9988515 L44.8100734,51.9988515 C44.7805195,52.0099604 44.7591566,52.0180198 44.7459294,52.0180198 C44.6818407,52.0180198 44.6176968,52.0180198 44.574971,51.9969455 C44.5108824,51.9759257 44.4681013,51.9759257 44.4467384,51.9759257 C44.4040127,51.9969455 44.3612869,52.0180198 44.3185611,52.0600594 C44.1261846,52.291495 43.9552262,52.6070099 43.7842679,53.0067129 L43.7582561,53.0698812 C43.4944854,53.7089158 43.3121261,54.1507129 43.2500299,54.3951634 C43.0577087,55.0054455 42.9081132,55.5309406 42.7798806,55.9938119 C42.3738752,57.5087624 42.0533214,58.5815347 41.8610001,59.1914356 C41.8182744,59.254604 41.7541304,59.4860396 41.647316,59.8857426 C41.5190834,60.3698515 41.3481251,60.8114851 41.1130227,61.2531188 C41.0062084,61.4426238 40.8779757,61.6315842 40.7283803,61.7791584 Z M45.4889811,61.1877723 C45.5958509,61.1877723 45.6813024,61.1670792 45.7881721,61.124604 C45.8736236,61.1039109 45.9164047,61.0614356 45.9164047,61.0195049 L45.9164047,60.9563366 C45.9164047,60.8931683 45.8950418,60.83 45.8308979,60.7880693 C45.7668092,60.7461386 45.7240835,60.6829703 45.7240835,60.5778713 C45.7026653,60.4934653 45.7026653,60.409604 45.7026653,60.3045049 C45.7026653,59.9679703 45.7454464,59.6314356 45.809535,59.2943564 C46.044582,57.7167822 46.2155957,56.7910396 46.3010472,56.5176733 C46.4933684,55.7395049 46.6002382,55.1922277 46.6002382,54.9188614 C46.6002382,54.7293564 46.5147313,54.6035644 46.3437729,54.4984653 C46.1514517,54.4140594 45.9377676,54.3719653 45.6813024,54.3719653 C45.3393857,54.3719653 45.1257016,54.6035644 45.0616129,55.045198 L45.0188318,55.1922277 C44.9120174,55.5919307 44.8265106,56.0128713 44.8051477,56.4338119 L44.7196962,57.1907426 C44.5487378,58.5581188 44.463231,59.3787624 44.463231,59.6940594 C44.463231,59.9679703 44.4845939,60.2832673 44.5273196,60.619802 C44.5701007,60.8512376 44.698278,60.9988119 44.9333803,61.0614356 C45.1684273,61.1458416 45.3393857,61.1877723 45.4889811,61.1877723 Z M49.1288058,59.9919307 C49.043299,60.3077723 48.9151217,60.454802 48.7441633,60.454802 L48.5945679,60.4341089 C48.1885072,60.3709406 47.9320973,60.2233663 47.8465905,60.0344059 C47.7611389,59.844901 47.7183578,59.5715347 47.7183578,59.1718317 C47.7183578,57.9934158 47.7825018,56.9418812 47.9320973,56.0161386 C47.9748231,55.679604 47.9961859,55.4062376 47.9961859,55.2167327 C47.9961859,55.069703 47.9748231,54.9433663 47.9320973,54.880198 C47.8679533,54.8170297 47.8252276,54.7331683 47.7825018,54.6275247 L47.7825018,54.5643564 C47.7825018,54.480495 47.8465905,54.438401 47.9748231,54.438401 C48.0389117,54.438401 48.1030557,54.4173812 48.1244185,54.3542673 C48.1885072,53.7652228 48.2953769,53.1761782 48.4236095,52.5871881 L48.7655262,51.114604 C48.7868891,50.9462822 48.808252,50.8411287 48.8296149,50.7990346 C48.8296149,50.756995 48.8509777,50.6728069 48.8937035,50.5465792 C48.9792103,50.2941782 49.0219361,50.0838168 49.0219361,49.9365148 C49.0219361,49.8313614 49.0005732,49.7051337 48.9578475,49.5999257 C48.8937035,49.4947723 48.8723406,49.3895644 48.8723406,49.2423168 C48.8723406,49.1371634 48.9364846,49.0109356 49.043299,48.8426139 C49.1501687,48.6953663 49.2997642,48.5481188 49.4920854,48.4008713 C49.556174,48.3377574 49.5989551,48.2746436 49.620318,48.2115297 C49.6416809,48.1484158 49.6630438,48.1063218 49.6844067,48.0642822 C49.7912764,47.9170346 49.8980908,47.8328465 50.0049605,47.8328465 C50.0476862,47.8328465 50.0904673,47.8328465 50.154556,47.8539208 C50.1972817,47.8749406 50.2614257,47.8749406 50.3255143,47.8749406 C50.4109658,47.8749406 50.5178356,47.8539208 50.6247053,47.8328465 C51.2443948,47.6014653 51.8214138,47.4962574 52.3556518,47.4962574 C52.9967594,47.4962574 53.5737232,47.6645792 54.0652354,47.9800941 C54.8986643,48.5060247 55.3260878,49.3054307 55.3260878,50.3362178 C55.3260878,50.8411287 55.240581,51.3249653 55.0482598,51.808802 C54.9841711,51.9981436 54.9200272,52.1453911 54.8559385,52.250599 L54.7918499,52.3557525 C54.6422544,52.6713218 54.4499332,52.9658168 54.2148308,53.2392921 L54.1293793,53.3445 C53.9797839,53.5338416 53.7874626,53.7231287 53.5951414,53.8914505 C53.1677178,54.2490594 52.8258011,54.5017327 52.5906988,54.6487624 C52.5266101,54.67 52.4838844,54.7119307 52.4411586,54.7538614 C52.3983775,54.7957921 52.3556518,54.8382673 52.312926,54.8589604 C51.3085387,55.4481683 50.5178356,55.784703 49.8980908,55.889802 C49.7271324,55.9110396 49.5989551,55.9529703 49.5348112,56.0161386 C49.4493597,56.0793069 49.3424899,56.4790099 49.2356202,57.2152475 L48.9578475,59.340099 C48.9578475,59.4032673 49.0005732,59.445198 49.0860801,59.4871287 C49.1715316,59.550297 49.2142573,59.6134653 49.2142573,59.6766337 C49.2142573,59.7185644 49.2142573,59.760495 49.1928945,59.8236634 C49.182213,59.8552475 49.1715316,59.8819307 49.1608501,59.9080693 C49.1501687,59.9342079 49.1394873,59.9603465 49.1288058,59.9919307 Z M49.855365,54.5855941 C49.855365,54.6487624 49.8767279,54.67 49.919509,54.67 L50.0476862,54.6275247 C50.6033424,54.3121733 51.1375804,53.8704307 51.6718183,53.3024059 C52.2702003,52.650302 52.6975685,52.0191634 52.9753966,51.3670594 C53.0181223,51.3039455 53.0394852,51.2618515 53.0608481,51.2197574 C53.0715295,51.2092475 53.082211,51.1882277 53.0956043,51.1619257 C53.1089422,51.1356238 53.1249921,51.1040941 53.1463549,51.0725099 C53.1890807,51.009396 53.2318064,50.9252624 53.2745875,50.8201089 C53.2959504,50.714901 53.360039,50.5676535 53.4455459,50.3783119 L53.5951414,49.8523812 C53.6805929,49.4947723 53.7233186,49.2423168 53.7233186,49.0740495 C53.7233186,48.926802 53.6805929,48.8215941 53.5951414,48.7795 C53.3814019,48.7163861 53.1463549,48.6953663 52.8685268,48.6953663 C52.4197404,48.6953663 51.8641396,48.7584802 51.2230319,48.9057277 C51.1589433,48.9267475 51.1162175,48.9688416 51.1162175,48.9898614 C51.1042078,49.013495 51.0989501,49.0371287 51.0928622,49.0644653 C51.0881026,49.0858663 51.0828449,49.1094455 51.0734364,49.1371634 C51.0734364,49.2423168 51.0520735,49.4737525 50.9879849,49.7892673 L50.7315197,50.9462822 L50.7101568,51.0725099 L50.5178356,51.9560495 C50.4537469,52.1033515 50.4109658,52.2926386 50.389603,52.5240743 C50.3468772,52.7554554 50.2827886,52.9658168 50.2186446,53.1761782 C50.1972817,53.2813861 50.1759189,53.3655198 50.154556,53.4496535 L50.0904673,53.7652228 C50.0476862,53.8704307 50.0049605,53.9966584 49.9835976,54.1228317 C49.967105,54.2203069 49.9378833,54.3177277 49.9057283,54.4248416 C49.8962091,54.4565347 49.8864685,54.4892079 49.8767279,54.5224257 L49.855365,54.5855941 Z" id="Shape" fill="#2B2D42"></path>
                <path d="M30.5933555,0.131839341 C30.4266033,-0.0367855406 30.1538669,-0.0446681842 29.9773741,0.114033499 L29.6393868,0.417885628 C27.2230573,2.59020048 25.2544627,6.5136881 23.7771035,10.3853614 C22.6269948,13.3994703 21.7391072,16.4801782 21.1572178,18.889396 C17.3986798,14.2159208 12.3912436,10.7592525 10.138733,9.50710395 L9.10075175,8.93009405 C8.75158494,8.73601484 8.34104136,9.06203959 8.46019751,9.43881682 L8.81456669,10.5596188 C9.31548741,12.1438366 9.62469568,14.8520148 9.79681627,17.6759109 C9.92831418,19.8339802 9.97690643,22.000599 9.98133397,23.6711832 C6.30963101,22.3185643 2.72263795,22.2424356 1.20703039,22.4061832 L0.394962136,22.4939109 C0.0566284035,22.5305049 -0.115002388,22.9133267 0.0856902177,23.1838614 L0.567677121,23.8334604 C3.85149443,28.2593267 5.28118006,34.2339604 5.57582173,36.6450297 L5.64688373,37.226396 C5.6808651,37.5047178 5.96937462,37.6794653 6.23724075,37.5839505 L6.79632826,37.384698 C26.6983939,30.2907327 45.6293341,33.3638713 52.4267138,36.2839356 C45.4058541,33.2678663 27.2510615,28.5558366 7.22336442,35.3254109 C6.73987714,32.6488168 5.46688766,28.0781535 2.99048748,24.1518614 C4.87827399,24.202396 7.7468656,24.5828762 10.5061634,25.837802 L11.1671397,26.138396 C11.458195,26.2707772 11.791312,26.0642822 11.7956289,25.7488218 L11.8054248,25.0318614 C11.8294995,23.2675594 11.7977873,20.4136584 11.6243384,17.5679802 C11.5109381,15.7075099 11.3348881,13.8064158 11.0627604,12.2062426 C13.8351195,14.0632277 17.9992755,17.4069554 20.8617903,21.5294505 L21.4949284,22.4412525 C21.7160286,22.7597079 22.2176688,22.6592376 22.2946527,22.2810445 L22.5150888,21.1979802 C23.0123568,18.7551089 24.0381623,14.8265297 25.4910039,11.0191138 C26.8052636,7.57486137 28.4219796,4.35906038 30.2307401,2.38825791 C32.7915734,5.28072424 37.4085006,12.088401 39.2001044,20.8054109 L39.527853,22.4000841 C39.6161271,22.8294653 40.2208736,22.8765148 40.3766123,22.4660841 L40.9548489,20.9419851 C41.6767592,19.0393663 44.8245735,14.4334158 51.6644022,11.2625297 C50.4783751,14.5851832 49.0943264,20.0106337 49.5118433,25.0923614 L49.5808576,25.9325 C49.6089725,26.2742624 50.0086686,26.4516238 50.2876035,26.2461089 L50.9728206,25.7411436 C52.29267,24.7686238 56.0543074,22.9400643 59.2924989,22.2036634 C58.46953,23.0929208 57.7268103,24.5368069 56.9746821,26.0001881 C56.6547924,26.6222327 56.3332423,27.2478168 56.0022838,27.8357723 C54.515018,30.4828515 53.5137853,35.1293713 53.5137853,38.4804505 C53.5137853,38.4804505 54.2084109,33.4115742 56.4029761,29.2719802 C55.861156,31.2359158 55.2344931,35.5170941 55.0707295,36.6693168 C55.0543476,36.7695148 55.0406776,36.8664455 55.0299408,36.9597822 C55.0299408,36.9597822 55.0443303,36.8553366 55.0707295,36.6693168 C55.3874093,34.7351139 56.7250796,31.5898762 57.6282976,29.4651337 L57.628851,29.4635 C57.8563158,28.9288564 58.0561085,28.4589059 58.2049846,28.0892079 C58.4684231,27.5144851 58.7257739,26.9402525 58.9775902,26.3804505 C59.8470482,24.4433069 60.6390243,22.6794406 61.2948535,21.6686386 L61.823391,20.6802723 C61.9855496,20.3767921 61.7442487,20.0163515 61.3966869,20.0430891 L60.3650703,20.1225396 C56.9237654,20.3874653 53.4173757,22.0692129 51.2673073,23.3758713 C51.2218143,17.9090346 53.1088315,12.2537277 54.1496907,9.95456434 L54.6166854,8.92296038 C54.7775157,8.56774751 54.4206561,8.19897523 54.0521741,8.33952474 L52.9827574,8.74750494 C46.3139977,11.2916089 42.3555563,15.2280841 40.4353879,18.0914604 C38.0908951,9.37597523 33.25807,2.82650444 30.9126364,0.454706766 L30.5933555,0.131839341 Z M16.6020548,27.2160693 C17.4109109,27.0027129 17.936183,26.3508267 17.5927167,25.0889307 C17.2492503,23.8269802 15.8354264,22.5204307 15.358193,22.6462772 C14.8809596,22.7721782 14.3202671,24.599594 14.6637334,25.8614901 C15.0071998,27.1233861 15.793254,27.4294257 16.6020548,27.2160693 Z M46.9425423,25.0526634 C46.5505944,26.4925742 45.7461658,26.8661386 44.9373651,26.6528366 C44.1285644,26.4394802 43.6216111,25.7200148 44.013559,24.280104 C44.405507,22.8401931 45.8794348,21.3125544 46.3566682,21.438401 C46.8339015,21.564302 47.3344902,23.6127525 46.9425423,25.0526634 Z M31.7727413,21.7812525 C33.7566109,21.2579356 33.9389702,19.1383663 33.4319063,17.2755544 C32.9248977,15.4127426 31.494083,14.252297 29.5102134,14.7755594 C27.5262884,15.2988762 26.8602758,17.1305396 27.3673397,18.9933515 C27.7686962,20.4678416 29.0518524,21.6826881 30.5532863,21.8655495 C30.6861678,22.4419604 30.8881189,23.6654109 30.7061471,24.2967673 C30.4726497,25.1071733 31.3133287,25.0396485 31.4067498,24.8145297 C31.4531283,24.7026782 31.3785243,24.4075297 31.2945117,24.075297 C31.2094476,23.7387624 31.1147536,23.3642178 31.1264866,23.1036485 C31.142149,22.7569307 31.3988909,22.1861287 31.587172,21.8245445 C31.6489362,21.8119653 31.7108111,21.7975891 31.7727413,21.7812525 Z M31.4060857,19.9246485 C32.3444473,19.6771485 32.1842811,18.522802 31.9444191,17.6416584 C31.7046125,16.7605148 31.1664451,16.7464653 30.2280835,16.9939653 C29.2896666,17.2414653 29.1586668,17.4927228 29.3984734,18.3738663 C29.6383353,19.2549554 30.4676687,20.172203 31.4060857,19.9246485 Z M31.622205,44.0683416 C25.5008552,44.0949158 12.4318109,43.9088416 9.12626545,42.9517871 C9.0724155,42.9361584 9.01983847,42.9204208 8.96847902,42.9045198 C8.8322215,43.8920148 9.11768709,45.4511287 9.30502735,46.4743465 C9.39258193,46.9523564 9.45866296,47.3134505 9.45036132,47.4445792 C9.42335333,47.8699307 8.07306455,47.8699307 8.39710508,46.8065247 C8.62822263,46.0481782 8.36146339,43.8954455 8.14777927,42.5895495 C5.61899023,41.3719802 8.4905815,39.6523861 9.12626545,40.1337723 C9.17729284,40.1337723 9.42661864,40.0391287 9.85476169,39.8766337 C13.2780243,38.5772178 28.1336361,32.9384109 44.5040197,36.6245544 C38.0676506,36.128302 24.1577612,35.7791337 20.009655,38.3525891 C27.4272775,36.9169802 44.2663715,35.3112525 52.2817672,40.3730495 C53.1621834,40.9797376 53.3193057,42.1402376 47.3178869,43.0218168 C46.7589101,43.288703 46.8283118,43.894302 46.9364544,44.8379059 C46.9486855,44.9445297 46.9614147,45.0554554 46.9737564,45.1706832 C47.019028,45.5928762 47.071273,45.9549505 47.1158804,46.2642574 C47.2300003,47.0552228 47.2943656,47.5014307 47.0654065,47.7268218 C46.7433584,48.0422277 44.8397379,48.1508663 45.6247959,46.468901 C46.2341913,45.1631683 46.4151117,43.4012079 45.1404231,43.2978515 C41.9934389,43.6427723 37.6266676,43.9209307 31.622205,44.0683416 Z M13.4086368,40.3985346 C18.6941224,38.9239901 35.3520194,37.2341832 47.1957975,40.0798614 C47.4338331,40.1370941 47.4131344,40.460396 47.1691216,40.4820693 C38.074956,41.2892624 20.0583026,42.0237574 13.4301103,40.7660544 C13.2148766,40.7252129 13.1977752,40.4573465 13.4086368,40.3985346 Z M45.9765639,50.8951485 C45.6544051,51.5534059 45.261793,52.9488812 46.2683941,53.2647772 C47.5266454,53.6596881 47.4537017,52.0799901 47.2530788,51.702995 C47.0525113,51.326 46.5419053,50.2848119 46.5054335,49.8180743 L45.9765639,50.8951485 Z" id="Shape" fill="#D3A708"></path>
            </g>
        </g>
    </g>
</svg>